# xmcd CD database file
#
# Track frame offsets:
#	150
#	17255
#	34275
#
# Disc length: 688 seconds
#
# Revision: 0
# Processed by: cddbd v1.5.1PL0 Copyright (c) Steve Scherf et al.
# Submitted via: CDex 1.51
#
DISCID=1702ae03
DTITLE=後ろ髪ひかれ隊 - メビウスの恋人
DYEAR=1987
DGENRE=JPop
TTITLE0=メビウスの恋人
TTITLE1=ごめんねカウボーイ
TTITLE2=時の河を越えて
EXTD=YEAR: 1987
EXTT0=
EXTT1=
EXTT2=
PLAYORDER=
